DataType=double
version=3
OpenSimVersion=4.2
endheader
time	ground_force_r_vx	ground_force_r_vy	ground_force_r_vz	ground_force_r_px	ground_force_r_py	ground_force_r_pz	ground_force_l_vx	ground_force_l_vy	ground_force_l_vz	ground_force_l_px	ground_force_l_py	ground_force_l_pz	ground_torque_r_x	ground_torque_r_y	ground_torque_r_z	ground_torque_l_x	ground_torque_l_y	ground_torque_l_z
1.137182368140538	0	0	0	0	0	0	-558.1510975334493	280.1916500280113	0	0	0	0	0	0	0	0	0	-16.24780953095117
1.13852827998124	0	0	0	0	0	0	-669.3484877753365	309.9300523357755	0	0	0	0	0	0	0	0	0	-18.96577928708682
1.139874191821943	0	0	0	0	0	0	-769.3028906783227	355.8029204443743	0	0	0	0	0	0	0	0	0	-20.72875915746053
1.141220103662646	0	0	0	0	0	0	-943.0436008429087	448.9220066058917	0	0	0	0	0	0	0	0	0	-23.76468804550095
1.142566015503348	0	0	0	0	0	0	-1324.60313305475	667.6448872782029	0	0	0	0	0	0	0	0	0	-30.58477998389792
1.143911927344051	0	0	0	0	0	0	-1836.943523252604	1008.623724165633	0	0	0	0	0	0	0	0	0	-38.57808239471426
1.145257839184754	0	0	0	0	0	0	-2306.455346869981	1417.477559397706	0	0	0	0	0	0	0	0	0	-43.57524282783707
1.146603751025456	0	0	0	0	0	0	-2633.551497161596	1859.886900660097	0	0	0	0	0	0	0	0	0	-43.49482529668484
1.147949662866159	0	0	0	0	0	0	-2806.565433921302	2325.047148832415	0	0	0	0	0	0	0	0	0	-38.27430015118237
1.149295574706862	0	0	0	0	0	0	-2803.063074874922	2769.426961363881	0	0	0	0	0	0	0	0	0	-27.86783258113546
1.150641486547564	0	0	0	0	0	0	-2403.764649241003	3004.728974671569	0	0	0	0	0	0	0	0	0	-8.535179171868467
1.151987398388267	0	0	0	0	0	0	-1719.354331588034	3009.004278632096	0	0	0	0	0	0	0	0	0	15.36768238629834
1.15333331022897	0	0	0	0	0	0	-1509.344750286222	3072.330774720125	0	0	0	0	0	0	0	0	0	25.01400086043434
1.154679222069672	0	0	0	0	0	0	-1251.116399309103	3204.124648576185	0	0	0	0	0	0	0	0	0	36.95312422321356
1.156025133910375	0	0	0	0	0	0	-1117.101376576498	3320.743342959667	0	0	0	0	0	0	0	0	0	44.53583497399462
1.157371045751078	0	0	0	0	0	0	-894.314151265821	3425.365493790806	0	0	0	0	0	0	0	0	0	54.0420227736354
1.158716957591781	0	0	0	0	0	0	-694.8228457298899	3512.021849145403	0	0	0	0	0	0	0	0	0	61.9879684591374
1.160062869432483	0	0	0	0	0	0	-494.4766941859727	3570.358493413028	0	0	0	0	0	0	0	0	0	68.74914653606469
1.161408781273186	0	0	0	0	0	0	-371.9970363809105	3622.295923601823	0	0	0	0	0	0	0	0	0	72.75764419504587
1.162754693113889	0	0	0	0	0	0	-279.2715684460933	3692.572474001431	0	0	0	0	0	0	0	0	0	76.08111479318379
1.164100604954591	0	0	0	0	0	0	-258.2711137397562	3720.625273588619	0	0	0	0	0	0	0	0	0	76.26678857535788
1.165446516795294	0	0	0	0	0	0	-270.8229765466463	3709.453330849083	0	0	0	0	0	0	0	0	0	74.52199813362363
1.166792428635997	0	0	0	0	0	0	-294.9883713078942	3686.477216071187	0	0	0	0	0	0	0	0	0	72.19631981444458
1.168138340476699	0	0	0	0	0	0	-321.5792395037332	3654.570720777573	0	0	0	0	0	0	0	0	0	69.60139315717882
1.169484252317402	0	0	0	0	0	0	-382.3213512903349	3639.944691350382	0	0	0	0	0	0	0	0	0	66.45582170409499
1.170830164158105	0	0	0	0	0	0	-447.3184800302798	3650.828999201122	0	0	0	0	0	0	0	0	0	63.87987518053251
1.172176075998807	0	0	0	0	0	0	-499.6959241918174	3629.18637250346	0	0	0	0	0	0	0	0	0	61.07616272256103
1.17352198783951	0	0	0	0	0	0	-530.9453601459437	3564.467098335961	0	0	0	0	0	0	0	0	0	57.97320650298229
1.174867899680213	0	0	0	0	0	0	-549.8989129041374	3492.402732352316	0	0	0	0	0	0	0	0	0	55.06759207283922
1.176213811520916	0	0	0	0	0	0	-565.1571236946073	3415.40126878406	0	0	0	0	0	0	0	0	0	52.14352756641401
1.177559723361618	0	0	0	0	0	0	-577.947032216117	3344.565563061095	0	0	0	0	0	0	0	0	0	49.49492323559435
1.178905635202321	0	0	0	0	0	0	-577.8562379322569	3284.634125080643	0	0	0	0	0	0	0	0	0	47.60391505559387
1.180251547043023	0	0	0	0	0	0	-555.4350565598719	3208.199817394894	0	0	0	0	0	0	0	0	0	46.11508315811895
1.181597458883726	0	0	0	0	0	0	-496.5927617976018	3112.22587434857	0	0	0	0	0	0	0	0	0	45.25967347953343
1.182943370724429	0	0	0	0	0	0	-442.6370847234452	3064.388178099115	0	0	0	0	0	0	0	0	0	45.58799480616975
1.184289282565131	0	0	0	0	0	0	-402.0001488344889	3055.592400915705	0	0	0	0	0	0	0	0	0	46.52746075613362
1.185635194405834	0	0	0	0	0	0	-360.0368562534963	3053.374112642359	0	0	0	0	0	0	0	0	0	47.57696739683128
1.186981106246537	0	0	0	0	0	0	-316.7683973582618	3060.19046972047	0	0	0	0	0	0	0	0	0	48.81372505735619
1.18832701808724	0	0	0	0	0	0	-269.2745454671011	3072.1217151201	0	0	0	0	0	0	0	0	0	50.25258518949492
1.189672929927942	0	0	0	0	0	0	-218.988005945318	3087.564439504686	0	0	0	0	0	0	0	0	0	51.82368512311727
1.191018841768645	0	0	0	0	0	0	-164.9184175973254	3107.198800756059	0	0	0	0	0	0	0	0	0	53.5680906614981
1.192364753609348	0	0	0	0	0	0	-106.3824101364476	3129.814812551575	0	0	0	0	0	0	0	0	0	55.48285802692324
1.19371066545005	0	0	0	0	0	0	-45.58318939973589	3152.530376958802	0	0	0	0	0	0	0	0	0	57.45306204550063
1.195056577290753	0	0	0	0	0	0	16.83861081524938	3176.050965947961	0	0	0	0	0	0	0	0	0	59.47469248664314
1.196402489131456	0	0	0	0	0	0	82.80055237222072	3204.009549447811	0	0	0	0	0	0	0	0	0	61.66931579661851
1.197748400972158	0	0	0	0	0	0	151.1516010908568	3234.07980492461	0	0	0	0	0	0	0	0	0	63.96147591516056
1.199094312812861	0	0	0	0	0	0	221.9376069221553	3262.834838047829	0	0	0	0	0	0	0	0	0	66.28984722722083
1.200440224653564	0	0	0	0	0	0	296.8246738344767	3289.059791997579	0	0	0	0	0	0	0	0	0	68.68017941404804
